<svg width="1178" height="363" viewBox="0 0 1178 363" fill="none" xmlns="http://www.w3.org/2000/svg">
<path d="M360.314 155.644C359.839 154.256 359.039 153.002 357.981 151.984C357.591 151.623 357.168 151.297 356.719 151.011C353.138 148.626 347.786 148.092 344.383 151.011C344.041 151.308 343.724 151.634 343.436 151.984C342.421 153.232 341.378 154.452 340.308 155.644C338.552 157.645 336.754 159.578 334.874 161.456C334.339 161.977 333.804 162.511 333.255 163.032C332.94 163.347 332.624 163.649 332.308 163.95C331.101 165.102 329.866 166.212 328.617 167.308C327.959 167.898 327.3 168.473 326.628 169.035C325.626 169.872 324.624 170.708 323.609 171.516C323.513 171.585 323.417 171.653 323.321 171.736C323.293 171.749 323.28 171.777 323.252 171.79C323.239 171.79 323.225 171.79 323.211 171.818C323.174 171.833 323.141 171.856 323.115 171.886C322.813 172.092 322.607 172.229 322.456 172.352C322.511 172.325 322.566 172.284 322.621 172.256C322.374 172.448 322.113 172.64 321.866 172.832C319.465 174.6 317.009 176.3 314.498 177.89C308.285 181.862 301.76 185.323 294.986 188.238C294.533 188.417 294.067 188.608 293.6 188.787C275.865 196.045 256.626 198.877 237.548 197.038C235.599 196.887 233.651 196.682 231.703 196.421C229.452 196.092 227.216 195.695 224.993 195.242C216.53 193.556 208.25 191.059 200.267 187.786C190.28 183.218 180.783 177.652 171.918 171.174C170.546 170.201 169.16 169.227 167.774 168.282C169.352 164.416 170.903 160.551 172.412 156.658C173.167 154.781 173.894 152.903 174.608 151.011C180.22 136.441 185.489 121.734 190.538 106.972C195.643 92.0183 200.459 76.9777 204.987 61.8502C205.453 60.3151 205.906 58.78 206.345 57.2448C208.719 49.2539 210.997 41.2447 213.179 33.2173C213.384 32.4361 213.604 31.6685 213.796 30.8871C214.427 28.5844 215.045 26.2817 215.649 23.979C217.021 18.7842 213.92 12.5752 208.458 11.3279C205.829 10.6545 203.041 11.0268 200.681 12.3666C198.321 13.7064 196.574 15.9089 195.807 18.5101C195.217 20.7306 194.627 22.9373 194.023 25.1578C191.128 35.89 188.082 46.5857 184.885 57.2448C184.418 58.78 183.952 60.3151 183.485 61.8502C176.433 85.0691 168.689 108.055 160.255 130.808C159.24 133.563 158.21 136.309 157.168 139.046C156.66 140.389 156.152 141.732 155.631 143.075C154.629 145.721 153.6 148.366 152.571 151.011C151.981 152.56 151.377 154.109 150.773 155.644C150.376 156.617 149.991 157.59 149.607 158.55C145.695 157.147 141.642 156.172 137.519 155.644L136.86 155.562C133.663 155.178 130.431 155.205 127.241 155.644C122.468 156.201 117.875 157.798 113.787 160.322C109.699 162.847 106.217 166.238 103.585 170.255C97.0402 180.549 97.1225 195.27 106.302 204.015C115.756 213.02 130.068 212.951 141.196 207.318C147.093 204.131 152.065 199.475 155.631 193.803C156.997 191.747 158.252 189.619 159.391 187.43C159.679 187.621 159.967 187.813 160.255 188.019C161.353 188.787 162.45 189.568 163.534 190.335C169.85 194.906 176.506 198.989 183.444 202.548C198.362 209.956 214.42 214.807 230.948 216.899C231.318 216.94 231.675 216.995 232.046 217.036C233.871 217.269 235.709 217.447 237.548 217.598C263.924 219.583 290.332 214.192 313.812 202.027C315.801 200.999 317.773 199.921 319.726 198.792C322.758 197.038 325.722 195.174 328.617 193.2C330.195 192.131 331.732 191.048 333.255 189.91C339.911 185.014 346.115 179.532 351.793 173.531C353.947 171.27 356.01 168.935 357.981 166.527C359.845 164.557 360.92 161.972 361 159.263C360.989 158.025 360.757 156.8 360.314 155.644V155.644ZM133.1 188.293C133.388 188.088 133.676 187.868 133.951 187.649C133.869 187.855 133.471 188.088 133.1 188.293H133.1ZM137.505 183.866C137.189 184.222 136.901 184.579 136.585 184.935C135.625 186.008 134.594 187.016 133.498 187.95C133.347 188.088 133.183 188.225 133.018 188.348C133.016 188.348 133.014 188.348 133.013 188.349C133.011 188.35 133.009 188.351 133.008 188.352C133.007 188.353 133.006 188.355 133.005 188.356C133.004 188.358 133.004 188.36 133.004 188.362C132.806 188.45 132.613 188.551 132.428 188.663C131.838 189.02 131.234 189.349 130.617 189.65C129.408 190.095 128.164 190.439 126.898 190.678C125.925 190.749 124.949 190.758 123.975 190.705H123.948C123.276 190.556 122.612 190.373 121.958 190.157C121.629 189.993 121.313 189.801 120.998 189.609C120.874 189.499 120.765 189.39 120.696 189.321C120.562 189.199 120.438 189.066 120.326 188.924C120.326 188.922 120.325 188.92 120.325 188.918C120.324 188.917 120.323 188.915 120.322 188.914C120.32 188.913 120.319 188.912 120.317 188.911C120.315 188.91 120.314 188.91 120.312 188.91C120.161 188.636 119.996 188.362 119.845 188.087C119.838 188.08 119.833 188.071 119.832 188.06C119.722 187.717 119.626 187.361 119.543 187.005C119.514 186.379 119.518 185.752 119.557 185.127C119.741 184.251 119.989 183.39 120.298 182.55C120.576 181.955 120.892 181.378 121.245 180.823C121.272 180.768 121.41 180.549 121.561 180.302C121.574 180.288 121.574 180.289 121.574 180.275C121.78 180.042 121.986 179.795 122.205 179.576C122.576 179.165 122.974 178.808 123.372 178.438C124.146 177.932 124.947 177.47 125.773 177.054C127.083 176.589 128.427 176.227 129.793 175.971C131.808 175.811 133.833 175.829 135.845 176.026C137.75 176.356 139.63 176.819 141.47 177.41C140.355 179.573 139.084 181.653 137.67 183.633C137.615 183.715 137.56 183.797 137.505 183.866V183.866ZM122.247 179.356C122.126 179.55 121.983 179.73 121.821 179.891C121.93 179.689 122.074 179.508 122.247 179.356V179.356Z" fill="#6C63FF"/>
<path d="M319 16.2704C318.877 20.5703 318.753 24.8702 318.63 29.1701C318.37 38.7147 318.1 48.2639 317.822 57.8177C317.534 68.5674 317.233 79.3125 316.918 90.0531C316.767 95.5992 316.612 101.145 316.452 106.691C316.027 121.631 315.607 136.567 315.192 151.498C315.151 153.045 315.096 154.579 315.055 156.126C314.849 163.535 314.644 170.943 314.438 178.351C314.205 186.39 313.977 194.428 313.753 202.466C313.589 208.491 313.42 214.521 313.247 220.556C312.014 264.28 310.781 308.005 309.548 351.73C309.496 354.437 308.397 357.019 306.481 358.934C304.566 360.849 301.983 361.948 299.274 362C296.556 361.978 293.955 360.889 292.033 358.968C290.111 357.046 289.022 354.447 289 351.73C289.685 327.135 290.379 302.541 291.082 277.947C291.699 255.708 292.324 233.469 292.959 211.23C293.164 203.904 293.37 196.573 293.575 189.238C293.89 178.201 294.201 167.163 294.507 156.126C294.548 154.579 294.603 153.045 294.644 151.498C294.671 150.142 294.712 148.8 294.753 147.444C295.356 126.013 295.959 104.578 296.562 83.1377C296.808 74.7022 297.046 66.2623 297.274 57.8177C297.548 48.1909 297.822 38.5686 298.096 28.951C298.219 24.7196 298.329 20.5018 298.452 16.2704C298.504 13.5628 299.603 10.9807 301.519 9.06575C303.434 7.15084 306.017 6.05206 308.726 6C311.444 6.02189 314.045 7.111 315.967 9.03235C317.889 10.9537 318.978 13.5533 319 16.2704V16.2704Z" fill="#6C63FF"/>
<path d="M882.437 18.5116C871.686 59.3376 858.838 99.5786 843.943 139.073C839.833 149.967 835.628 160.84 831.133 171.581L832.167 169.125C830.161 174.241 827.598 179.12 824.526 183.673C824.317 183.966 824.105 184.257 823.888 184.545C824.95 183.183 825.152 182.914 824.494 183.738C824.146 184.15 823.803 184.563 823.444 184.965C822.488 186.04 821.461 187.049 820.37 187.986C820.096 188.221 819.817 188.452 819.534 188.677L820.816 187.678C820.667 188.03 819.623 188.497 819.298 188.696C818.244 189.334 817.146 189.892 816.01 190.367L818.459 189.33C816.599 190.082 814.658 190.616 812.676 190.922L815.401 190.554C813.453 190.824 811.479 190.845 809.526 190.617L812.252 190.985C810.654 190.764 809.09 190.341 807.597 189.727L810.046 190.764C809.25 190.416 808.483 190.005 807.752 189.535C807.381 189.293 806.241 188.427 807.731 189.569C809.28 190.756 807.93 189.671 807.612 189.355C807.346 189.093 807.106 188.807 806.846 188.54C805.641 187.3 808.208 190.674 807.389 189.223C806.951 188.496 806.55 187.747 806.188 186.979L807.222 189.436C806.752 188.267 806.418 187.047 806.227 185.801L806.593 188.534C806.397 186.984 806.396 185.416 806.589 183.866L806.222 186.6C806.473 184.869 806.93 183.176 807.582 181.554L806.549 184.01C807.004 182.92 807.542 181.867 808.159 180.859C808.443 180.339 808.777 179.847 809.155 179.391C809.222 179.412 807.421 181.465 808.377 180.428C808.627 180.157 808.86 179.872 809.113 179.603C809.518 179.173 809.952 178.779 810.379 178.372C811.806 177.009 808.38 179.696 810.028 178.618C811.222 177.83 812.479 177.143 813.786 176.562L811.337 177.599C813.526 176.697 815.82 176.08 818.165 175.762L815.44 176.129C818.376 175.79 821.343 175.826 824.271 176.234L821.545 175.867C825.252 176.43 828.876 177.453 832.332 178.91L829.884 177.874C837.251 181.046 843.775 185.755 850.289 190.374C856.58 194.943 863.208 199.025 870.117 202.584C884.979 209.995 900.977 214.849 917.442 216.943C941.056 219.844 965.018 216.751 987.13 207.948C1009.24 199.144 1028.8 184.913 1044 166.558C1045.85 164.585 1046.92 161.998 1047 159.288C1046.98 156.565 1045.9 153.957 1044 152.017C1040.24 148.555 1033.13 147.577 1029.5 152.017C1026.06 156.232 1022.36 160.228 1018.42 163.981C1016.58 165.731 1014.69 167.426 1012.76 169.067C1011.65 170.005 1010.53 170.924 1009.39 171.825C1008.85 172.251 1007.18 173.385 1009.75 171.554C1009.16 171.974 1008.6 172.432 1008.02 172.863C999.407 179.228 990.078 184.549 980.223 188.717L982.672 187.681C972.097 192.13 960.991 195.182 949.633 196.76L952.358 196.393C940.673 197.934 928.836 197.917 917.155 196.34L919.881 196.708C908.203 195.099 896.782 191.979 885.904 187.426L888.352 188.463C877.855 183.804 867.893 178.016 858.641 171.201C853.826 167.625 848.748 164.42 843.451 161.612C837.279 158.451 830.597 156.414 823.716 155.596C810.814 154.073 797.667 159.113 790.573 170.293C784.046 180.582 784.13 195.304 793.271 204.053C802.686 213.063 816.944 212.987 828.039 207.351C838.725 201.922 845.143 190.645 849.657 180.012C859.814 156.082 868.807 131.599 877.186 106.991C885.475 82.6462 892.992 58.0547 899.738 33.2168C900.573 30.1406 901.396 27.0612 902.207 23.9785C903.576 18.7845 900.484 12.5723 895.047 11.3304C892.427 10.6539 889.647 11.0247 887.295 12.3646C884.942 13.7044 883.2 15.9084 882.436 18.5118L882.437 18.5116Z" fill="#6C63FF"/>
<path d="M985.455 16.2704L981.758 147.448L978.08 277.942L976 351.73C976.023 354.446 977.113 357.045 979.034 358.966C980.956 360.887 983.555 361.977 986.272 362C988.98 361.948 991.563 360.849 993.478 358.934C995.393 357.019 996.492 354.437 996.545 351.73L1000.24 220.552L1003.92 90.0577L1006 16.2704C1005.98 13.5537 1004.89 10.9548 1002.97 9.03368C1001.04 7.1126 998.445 6.02312 995.728 6C993.02 6.05233 990.437 7.15118 988.522 9.06603C986.607 10.9809 985.508 13.5629 985.455 16.2704V16.2704Z" fill="#6C63FF"/>
<path opacity="0.2" d="M629.499 315H632.685V169.618H707V166.433H632.685V105.089H690.075C689.234 104.017 688.368 102.958 687.478 101.913H632.685V61.3961C631.631 60.9458 630.569 60.5118 629.499 60.1025V101.913H567.052V50C565.982 50.0491 564.929 50.1228 563.867 50.2129V101.913H514.048V63.1808C512.978 63.6556 511.925 64.1551 510.879 64.6791V101.913H469V105.089H510.879V166.433H469V169.618H510.879V315H514.048V169.618C520.591 169.617 527.07 170.907 533.115 173.416C539.159 175.925 544.652 179.603 549.278 184.24C553.904 188.877 557.574 194.381 560.077 200.44C562.58 206.499 563.868 212.992 563.867 219.55V315H567.052V169.618H629.499V315ZM514.048 166.433V105.089H563.867V166.433H514.048ZM567.052 166.433V105.089H568.302C576.339 105.09 584.297 106.677 591.722 109.76C599.148 112.843 605.894 117.362 611.577 123.058C617.259 128.755 621.767 135.517 624.842 142.959C627.917 150.402 629.5 158.378 629.499 166.433H567.052Z" fill="#828282"/>
<path d="M610.116 271.17C606.065 289.001 596.362 305.094 582.416 317.114C581.393 317.987 580.371 318.832 579.307 319.664C576.724 319.896 574.158 320.132 571.612 320.373C569.498 320.564 567.412 320.768 565.34 320.959L564.967 321L564.704 318.764L563.654 309.712C559.581 303.149 557.056 295.767 556.267 288.111C555.478 280.455 556.444 272.722 559.095 265.485C562.742 255.778 569.346 247.203 575.839 238.696C584.806 226.944 593.523 215.329 593.841 201C598.253 206.571 601.921 212.679 604.755 219.173C602.081 220.416 599.678 222.161 597.682 224.313C597.115 224.926 596.549 225.785 596.936 226.522C597.267 227.149 598.096 227.299 598.815 227.38C600.542 227.557 602.282 227.735 604.009 227.912C605.391 228.062 606.772 228.198 608.154 228.348C609.825 233.762 610.959 239.323 611.539 244.954C612.47 253.712 611.989 262.56 610.116 271.17V271.17Z" fill="#534E8E"/>
<path d="M655 235.117C646.998 240.99 642.318 249.437 638.683 258.747C634.958 259.951 631.606 262.112 628.958 265.018C628.402 265.634 627.846 266.496 628.226 267.236C628.551 267.865 629.365 268.016 630.07 268.098C631.766 268.276 633.475 268.454 635.17 268.632C631.535 279.64 628.199 291.031 621.77 300.327C617.494 306.464 611.921 311.566 605.453 315.263C603.689 316.278 601.869 317.188 600 317.988C593.11 318.522 586.351 319.092 579.723 319.699C577.186 319.932 574.668 320.169 572.168 320.411C570.093 320.603 568.045 320.808 566.01 321C565.997 320.247 565.997 319.494 566.01 318.741C566.439 298.682 573.75 279.394 586.694 264.169C587.305 263.457 587.929 262.759 588.566 262.06C595.124 254.99 602.836 249.109 611.366 244.673C624.807 237.619 639.872 234.319 655 235.117V235.117Z" fill="#6C63FF"/>
<path d="M573.859 313.673L572.288 318.314L571.495 320.676C569.405 320.867 567.342 321.072 565.293 321.263L564.924 321.304C562.657 321.536 560.403 321.768 558.148 322C557.561 321.317 556.974 320.621 556.4 319.911C542.14 302.657 535.296 280.465 537.362 258.183C539.427 235.902 550.236 215.343 567.424 201C565.621 210.433 567.725 219.469 571.181 228.438C570.812 228.588 570.457 228.738 570.116 228.902C567.471 230.146 565.095 231.894 563.121 234.048C562.561 234.663 562.001 235.523 562.383 236.26C562.711 236.888 563.531 237.038 564.241 237.12C565.949 237.297 567.67 237.475 569.378 237.652C570.744 237.802 572.11 237.939 573.476 238.089C574.118 238.157 574.76 238.225 575.402 238.294C575.498 238.498 575.58 238.69 575.676 238.894C579.569 247.331 583.763 255.808 586.126 264.599C586.719 266.804 587.184 269.042 587.52 271.301C588.572 278.936 587.89 286.709 585.525 294.044C583.16 301.379 579.173 308.088 573.859 313.673V313.673Z" fill="#6C63FF"/>
<path d="M712.041 115.248C700.252 92.2587 681.988 72.9157 660.507 58.7012C638.957 44.5062 614.23 35.8617 588.528 33.538C585.159 33.2319 581.781 33.0526 578.395 33.0002C574.395 32.9403 514.217 50.2938 494.058 64.4641C473.91 78.4616 457.335 96.9985 445.672 118.579C434.03 140.277 428.303 164.657 429.068 189.268C430.066 214.028 436.969 238.19 449.202 259.742C461.268 281.223 478.4 299.433 499.109 312.787C520.112 326.185 541.211 361.711 566.01 362.965C590.996 364.229 619.491 330.717 642.279 320.542C665.068 310.282 684.769 294.231 699.419 273.987C713.655 254.149 722.864 231.154 726.258 206.975C729.782 182.218 728.139 156.685 719.683 133.023C717.513 126.943 714.96 121.006 712.041 115.248C709.604 110.449 702.461 108.682 697.989 111.565C695.685 112.983 694.017 115.234 693.331 117.851C692.644 120.467 692.993 123.247 694.304 125.613C695.736 128.431 697.066 131.296 698.297 134.208L697.261 131.755C701.917 142.947 705.083 154.702 706.678 166.718L706.311 163.988C708.008 177.025 707.977 190.228 706.221 203.256L706.587 200.527C704.812 213.554 701.334 226.292 696.242 238.414L697.277 235.962C694.658 242.147 691.605 248.139 688.141 253.894C686.386 256.802 684.523 259.641 682.553 262.412C681.688 263.628 680.797 264.823 679.898 266.014C678.726 267.569 681.496 263.983 680.285 265.508C680.078 265.768 679.873 266.029 679.666 266.288C679.044 267.065 678.413 267.835 677.774 268.598C673.504 273.691 668.845 278.444 663.838 282.814C662.591 283.902 661.323 284.966 660.034 286.005C659.392 286.523 658.758 287.063 658.088 287.545C658.114 287.527 660.251 285.903 658.986 286.846C658.588 287.142 658.194 287.443 657.795 287.738C655.139 289.706 652.412 291.573 649.614 293.34C643.173 297.397 636.416 300.928 629.407 303.9L631.861 302.865C619.772 307.953 607.066 311.429 594.07 313.203L596.8 312.837C583.811 314.592 570.646 314.615 557.65 312.906L560.38 313.273C548.569 311.687 537.016 308.565 526.015 303.984L528.468 305.019C522.096 302.33 515.952 299.129 510.096 295.448C507.198 293.623 504.376 291.685 501.628 289.633C501.236 289.341 500.848 289.044 500.457 288.75C499.204 287.804 501.358 289.447 501.375 289.459C500.646 288.936 499.945 288.376 499.273 287.782C497.946 286.702 496.64 285.596 495.355 284.466C490.212 279.938 485.409 275.038 480.985 269.804C479.878 268.496 478.794 267.168 477.734 265.82C477.275 265.236 476.438 264.053 478.288 266.544C478.045 266.216 477.792 265.895 477.546 265.569C476.956 264.786 476.374 263.998 475.799 263.203C473.788 260.421 471.877 257.571 470.064 254.652C465.97 248.045 462.396 241.13 459.376 233.968L460.411 236.421C455.469 224.665 452.09 212.313 450.359 199.679L450.726 202.409C449.165 190.763 449.142 178.963 450.66 167.312L450.293 170.042C451.848 158.759 454.885 147.73 459.323 137.24L458.288 139.693C461.081 133.126 464.375 126.784 468.141 120.723C470.027 117.69 472.025 114.73 474.136 111.845C474.616 111.189 475.101 110.538 475.591 109.89C476.035 109.304 477.255 107.846 475.173 110.422C475.377 110.169 475.573 109.909 475.775 109.655C476.933 108.187 478.119 106.743 479.334 105.322C483.933 99.9402 488.913 94.8977 494.238 90.2335C495.584 89.0545 496.951 87.9004 498.339 86.7711C498.97 86.258 499.605 85.7501 500.244 85.2475C500.499 85.0466 500.758 84.8494 501.013 84.647C498.277 86.8232 500.253 85.2393 500.874 84.7742C503.735 82.6309 506.672 80.5949 509.686 78.6663C516.386 74.3826 523.435 70.6695 530.757 67.5661L528.303 68.6013C538.93 64.1403 586.011 53.6111 594.574 54.7604L591.844 54.3936C604.43 56.1502 616.732 59.5481 628.434 64.5005L625.981 63.4655C631.911 65.983 637.675 68.8773 643.236 72.1305C646.014 73.7589 648.738 75.4759 651.408 77.2816C652.671 78.1365 653.92 79.0104 655.157 79.9034C655.775 80.3498 656.39 80.8011 657.001 81.2571C657.34 81.5104 657.677 81.7672 658.016 82.0211C659.439 83.0876 656.056 80.4766 657.547 81.6561C662.54 85.5778 667.282 89.8089 671.745 94.3244C673.937 96.5559 676.054 98.8583 678.095 101.232C679.142 102.449 680.167 103.685 681.171 104.938C681.67 105.561 683.369 107.815 681.287 105.054C681.796 105.729 682.31 106.399 682.813 107.079C687.14 112.935 690.983 119.133 694.304 125.613C696.76 130.402 703.872 132.187 708.356 129.297C710.661 127.879 712.33 125.628 713.016 123.011C713.703 120.394 713.353 117.614 712.041 115.248Z" fill="#6C63FF"/>
<path d="M592.443 282.295C591.386 282.344 590.339 282.065 589.444 281.497C588.55 280.93 587.851 280.1 587.443 279.12C587.035 278.141 586.936 277.059 587.162 276.022C587.387 274.985 587.924 274.042 588.702 273.322C588.832 272.803 588.925 272.43 589.055 271.911C589.009 271.798 588.962 271.686 588.915 271.573C584.162 260.208 553.834 291.89 552.523 302.571C551.946 307.292 552.189 312.078 553.243 316.716C543.419 295.226 538.318 271.869 538.285 248.229C538.283 242.297 538.612 236.369 539.27 230.473C539.813 225.64 540.568 220.842 541.533 216.077C546.798 190.227 558.103 165.998 574.519 145.38C583.907 145.905 592.135 144.471 592.929 126.225C593.07 122.979 595.471 120.169 596 116.971C595.104 117.089 594.193 117.163 593.296 117.222C593.017 117.236 592.723 117.251 592.444 117.266L592.339 117.271C591.354 117.315 590.377 117.073 589.526 116.573C588.675 116.074 587.986 115.338 587.542 114.455C587.099 113.572 586.919 112.58 587.024 111.597C587.13 110.613 587.517 109.682 588.138 108.914C588.525 108.436 588.912 107.959 589.3 107.482C589.888 106.745 590.49 106.023 591.078 105.287C591.146 105.217 591.209 105.143 591.269 105.065C591.945 104.226 592.621 103.4 593.297 102.56C592.063 100.64 590.403 99.0317 588.448 97.8603C581.674 93.8819 572.329 96.6372 567.436 102.782C562.529 108.926 561.603 117.546 563.308 125.223C564.984 131.755 567.756 137.954 571.507 143.553C571.139 144.024 570.757 144.481 570.39 144.953C563.675 153.612 557.823 162.909 552.916 172.713C554.304 161.84 537.33 122.572 530.766 114.255C522.881 104.265 506.713 108.625 505.324 121.289C505.31 121.412 505.297 121.534 505.284 121.657C506.26 122.208 507.214 122.794 508.148 123.413C509.321 124.199 510.23 125.322 510.756 126.635C511.281 127.948 511.399 129.39 511.094 130.771C510.789 132.153 510.075 133.409 509.045 134.377C508.016 135.344 506.719 135.977 505.325 136.193L505.182 136.215C492.131 154.902 533.969 203.541 544.442 192.62C539.513 206.628 536.421 221.22 535.244 236.028C534.578 244.765 534.617 253.541 535.361 262.271L535.317 261.962C532.99 242.947 493.071 214.677 481.414 217.032C474.699 218.388 468.085 218.08 469.105 224.873C469.121 224.981 469.137 225.09 469.154 225.198C470.963 225.937 472.725 226.789 474.429 227.747C475.404 228.299 476.358 228.885 477.292 229.504C478.465 230.29 479.374 231.413 479.9 232.726C480.426 234.039 480.544 235.48 480.239 236.862C479.933 238.243 479.219 239.5 478.19 240.467C477.16 241.435 475.863 242.068 474.469 242.283L474.326 242.305C474.223 242.32 474.135 242.335 474.032 242.35C468.091 262.849 512.148 295.931 538.932 285.405H538.947C541.601 296.972 545.447 308.23 550.422 319H591.416C591.563 318.543 591.695 318.072 591.827 317.615C588.033 317.854 584.223 317.627 580.484 316.937C583.526 313.195 586.567 309.422 589.608 305.68C589.676 305.61 589.74 305.536 589.799 305.459C591.342 303.543 592.9 301.642 594.442 299.727L594.443 299.725C594.526 293.853 593.854 287.995 592.444 282.296L592.443 282.295ZM545.5 189.687L545.521 189.658L545.5 189.717V189.687ZM536.419 271.775L536.067 270.979C536.081 270.405 536.081 269.83 536.067 269.241C536.067 269.078 536.037 268.916 536.037 268.754C536.169 269.771 536.287 270.788 536.434 271.804L536.419 271.775Z" fill="#534E8E"/>
<path d="M130.5 197C139.06 197 146 190.284 146 182C146 173.716 139.06 167 130.5 167C121.94 167 115 173.716 115 182C115 190.284 121.94 197 130.5 197Z" fill="#534E8E"/>
<path d="M311 362C319.284 362 326 355.06 326 346.5C326 337.94 319.284 331 311 331C302.716 331 296 337.94 296 346.5C296 355.06 302.716 362 311 362Z" fill="#534E8E"/>
<path d="M997 362C1005.28 362 1012 355.06 1012 346.5C1012 337.94 1005.28 331 997 331C988.716 331 982 337.94 982 346.5C982 355.06 988.716 362 997 362Z" fill="#534E8E"/>
<path d="M1034 170C1042.28 170 1049 163.284 1049 155C1049 146.716 1042.28 140 1034 140C1025.72 140 1019 146.716 1019 155C1019 163.284 1025.72 170 1034 170Z" fill="#534E8E"/>
<path d="M990.5 30C999.06 30 1006 23.2843 1006 15C1006 6.71573 999.06 0 990.5 0C981.94 0 975 6.71573 975 15C975 23.2843 981.94 30 990.5 30Z" fill="#534E8E"/>
<path d="M362 155.035C361.991 158.885 360.502 162.583 357.842 165.366C355.182 168.148 351.554 169.801 347.709 169.983C343.864 170.165 340.096 168.862 337.185 166.343C334.274 163.824 332.443 160.283 332.07 156.452C331.698 152.62 332.813 148.792 335.184 145.76C337.555 142.728 341.001 140.723 344.81 140.161C348.618 139.599 352.496 140.522 355.643 142.74C358.789 144.958 360.962 148.301 361.712 152.076C361.906 153.051 362.002 154.042 362 155.035V155.035Z" fill="#534E8E"/>
<path d="M663 74C671.284 74 678 67.2843 678 59C678 50.7157 671.284 44 663 44C654.716 44 648 50.7157 648 59C648 67.2843 654.716 74 663 74Z" fill="#534E8E"/>
<path d="M514 59.0353C513.991 62.8847 512.502 66.5832 509.842 69.3656C507.182 72.148 503.554 73.8013 499.709 73.9832C495.864 74.1652 492.096 72.8619 489.185 70.3431C486.274 67.8243 484.443 64.2829 484.07 60.4515C483.698 56.6202 484.813 52.7923 487.184 49.7599C489.555 46.7276 493.001 44.723 496.81 44.1608C500.618 43.5987 504.496 44.5222 507.643 46.7401C510.789 48.958 512.962 52.3005 513.712 56.0761C513.906 57.0506 514.002 58.0418 514 59.0353V59.0353Z" fill="#534E8E"/>
<path d="M319 15.0353C318.991 18.8847 317.502 22.5832 314.842 25.3656C312.182 28.148 308.554 29.8013 304.709 29.9832C300.864 30.1652 297.096 28.8619 294.185 26.3431C291.274 23.8243 289.443 20.2829 289.07 16.4515C288.698 12.6202 289.813 8.79227 292.184 5.75994C294.555 2.72761 298.001 0.72296 301.81 0.160843C305.618 -0.401275 309.496 0.522163 312.643 2.74006C315.789 4.95795 317.962 8.30053 318.712 12.0761C318.906 13.0506 319.002 14.0418 319 15.0353V15.0353Z" fill="#534E8E"/>
<path d="M821 203C829.284 203 836 196.284 836 188C836 179.716 829.284 173 821 173C812.716 173 806 179.716 806 188C806 196.284 812.716 203 821 203Z" fill="#534E8E"/>
<path d="M584 66C596.15 66 606 56.1503 606 44C606 31.8497 596.15 22 584 22C571.85 22 562 31.8497 562 44C562 56.1503 571.85 66 584 66Z" fill="#534E8E"/>
<path d="M1176.37 362.543L1.6307 363C1.41656 363 1.2045 362.954 1.00665 362.865C0.808804 362.776 0.629047 362.646 0.477621 362.481C0.326195 362.317 0.206064 362.121 0.124113 361.907C0.0421615 361.692 0 361.461 0 361.229C0 360.996 0.0421615 360.766 0.124113 360.551C0.206064 360.336 0.326195 360.141 0.477621 359.976C0.629047 359.812 0.808804 359.681 1.00665 359.592C1.2045 359.503 1.41656 359.457 1.6307 359.457L1176.37 359C1176.81 359.001 1177.22 359.189 1177.52 359.521C1177.83 359.853 1178 360.302 1178 360.771C1178 361.24 1177.83 361.69 1177.52 362.022C1177.22 362.354 1176.81 362.541 1176.37 362.543V362.543Z" fill="#CACACA"/>
</svg>
